# xmcd CD database file
#
# Track frame offsets:
#	150
#	31731
#	61422
#	95227
#	116761
#	145275
#	174673
#	198401
#	248985
#	285249
#	323924
#
# Disc length: 4708 seconds
#
# Revision: 0
# Processed by: cddbd v1.5.2PL0 Copyright (c) Steve Scherf et al.
# Submitted via: CDex 1.81
#
DISCID=a112620b
DTITLE=Bill Evans - NoAlbum (Jazz Classics Collection?)
DYEAR=1900
DGENRE=Jazz
TTITLE0=Waltz for Debby
TTITLE1=Milestones
TTITLE2=Nobody else but me
TTITLE3=I will say goodbye
TTITLE4=But beautiful
TTITLE5=The Wind
TTITLE6=Blues
TTITLE7=Stella by Starlight
TTITLE8=The wrong Blues
TTITLE9=Falling in love with love
TTITLE10=The old Country
EXTD=
EXTT0=
EXTT1=
EXTT2=
EXTT3=
EXTT4=
EXTT5=
EXTT6=
EXTT7=
EXTT8=
EXTT9=
EXTT10=
PLAYORDER=
